<?xml version="1.0" encoding="UTF-8"?><svg id="a" xmlns="http://www.w3.org/2000/svg" width="219.59" height="234.17" viewBox="0 0 219.59 234.17"><polygon points="84.67 65.18 134.81 65.18 134.81 50.43 84.67 50.43 84.67 65.18 84.67 65.18" style="fill:#1c1c73;"/><path d="m109.74,64.89c-32.98,0-59.71,26.74-59.71,59.72h119.43c0-32.98-26.74-59.72-59.72-59.72" style="fill:#3030d1;"/><path d="m137.16,140.81c-1.36,2.25-3,4.34-4.91,6.24-6.03,5.98-14.03,9.27-22.52,9.27-8.49,0-16.49-3.29-22.52-9.27-6.03-5.97-9.39-13.93-9.47-22.41h0v-.02h-27.73s0,0,0,.01c0,.09,0,.18,0,.27h0c.31,32.71,26.92,59.14,59.71,59.14h0c27.26,0,50.25-18.27,57.4-43.23h-29.98Z" style="fill:#1c1c73;"/></svg>