<?xml version="1.0" encoding="UTF-8"?><svg id="a" xmlns="http://www.w3.org/2000/svg" width="700.37" height="232.46" viewBox="0 0 700.37 232.46"><path d="m267.59,124.18c0-32.57-26.41-58.98-58.98-58.98v117.96c32.57,0,58.98-26.41,58.98-58.98" style="fill:#1c1c73;"/><polygon points="183.27 183.16 209.82 183.16 209.82 65.2 183.27 65.2 183.27 183.16 183.27 183.16" style="fill:#3030d1;"/><polygon points="326.87 183.16 353.41 183.16 353.41 65.2 326.87 65.2 326.87 183.16 326.87 183.16" style="fill:#3030d1;"/><path d="m379.81,65.2h-26.54v26.54h1.66c13.74,0,24.88-11.14,24.88-24.88v-1.66h0Z" style="fill:#1c1c73;"/><path d="m379.81,107.08h-26.54v26.54h1.66c13.74,0,24.88-11.14,24.88-24.88v-1.66h0Z" style="fill:#1c1c73;"/><polygon points="84.78 64.58 134.92 64.58 134.92 49.84 84.78 49.84 84.78 64.58 84.78 64.58" style="fill:#1c1c73;"/><path d="m109.85,64.3c-32.98,0-59.71,26.74-59.71,59.72h119.43c0-32.98-26.74-59.72-59.72-59.72" style="fill:#3030d1;"/><path d="m137.28,140.21c-1.36,2.25-3,4.34-4.91,6.24-6.03,5.98-14.03,9.27-22.52,9.27-8.49,0-16.49-3.29-22.52-9.27-6.03-5.97-9.39-13.93-9.47-22.41h0v-.02h-27.73s0,0,0,.01c0,.09,0,.18,0,.27h0c.31,32.71,26.92,59.14,59.71,59.14h0c27.26,0,50.25-18.27,57.4-43.23h-29.98Z" style="fill:#1c1c73;"/><path d="m462.36,124.16c.08-8.41,3.4-16.31,9.35-22.24,5.95-5.93,13.84-9.2,22.22-9.2h26.97v-27.52h-27.36c-32.18.22-58.24,26.36-58.54,58.7h0c0,.1,0,.2,0,.3,0,.09,0,.18,0,.27h0c.3,32.34,26.36,58.48,58.54,58.69h0s27.36,0,27.36,0v-27.52h-26.97c-8.38,0-16.27-3.27-22.22-9.2-5.95-5.93-9.27-13.83-9.35-22.24h0s0-.05,0-.05h0Z" style="fill:#1c1c73;"/><polygon points="283.65 183.16 310.19 183.16 310.19 107.08 283.65 107.08 283.65 183.16 283.65 183.16" style="fill:#3030d1;"/><polygon points="310.19 91.97 283.65 91.97 283.65 65.2 310.19 65.2 310.19 91.97 310.19 91.97" style="fill:#1c1c73;"/><polygon points="396.31 183.16 422.85 183.16 422.85 107.08 396.31 107.08 396.31 183.16 396.31 183.16" style="fill:#3030d1;"/><polygon points="422.85 91.97 396.31 91.97 396.31 65.2 422.85 65.2 422.85 91.97 422.85 91.97" style="fill:#1c1c73;"/><path d="m589.6,64.27c-32.98,0-59.71,26.73-59.71,59.72h119.43c0-32.98-26.74-59.72-59.72-59.72" style="fill:#3030d1;"/><path d="m617.03,140.18c-1.36,2.25-3,4.34-4.91,6.24-6.03,5.98-14.03,9.27-22.52,9.27-8.49,0-16.48-3.29-22.51-9.27-6.03-5.97-9.39-13.93-9.47-22.41h0v-.02h-27.73s0,.01,0,.02c0,.09,0,.18,0,.27h0c.31,32.71,26.92,59.14,59.71,59.14h0c27.26,0,50.25-18.27,57.4-43.23h-29.98Z" style="fill:#1c1c73;"/></svg>