<svg width="24" height="24" viewBox="0 0 24 24" fill="none" xmlns="http://www.w3.org/2000/svg">
<path d="M19.9349 17.5097C20.6601 17.5097 21.2828 17.774 21.8031 18.3025C22.3234 18.831 22.5835 19.4636 22.5835 20.2004C22.5835 20.9371 22.3233 21.5697 21.8031 22.0982C21.2829 22.6268 20.6681 22.891 19.9586 22.891C19.2491 22.891 18.6264 22.6268 18.0904 22.0982C17.5544 21.5697 17.2943 20.9291 17.31 20.1764C17.31 19.8881 17.3731 19.5758 17.4992 19.2395L13.5027 16.3086C12.7302 17.1093 11.8001 17.5097 10.7123 17.5097C9.62446 17.5097 8.69431 17.1173 7.92181 16.3326C7.14932 15.5478 6.75519 14.5949 6.73944 13.4738C6.73944 13.3297 6.76309 13.1215 6.81037 12.8492L3.64159 11.7922C3.38934 12.0164 3.10556 12.1285 2.79025 12.1285C2.41187 12.1285 2.09656 12.0004 1.84432 11.7441C1.59207 11.4879 1.46594 11.1675 1.46594 10.7832C1.46594 10.3988 1.59207 10.0865 1.84432 9.84624C2.09656 9.60602 2.41187 9.47789 2.79025 9.46186C3.10556 9.46186 3.37357 9.56596 3.59429 9.77415C3.81501 9.98234 3.96477 10.2306 4.04358 10.5189L7.23604 11.5999C7.5671 10.9433 8.04794 10.4228 8.67856 10.0384C9.30918 9.654 9.98708 9.46181 10.7123 9.46181C11.532 9.46181 12.2888 9.71005 12.9825 10.2065L17.6884 5.42588C17.4361 4.9454 17.31 4.50496 17.31 4.10458C17.31 3.36788 17.5701 2.73525 18.0904 2.20671C18.6106 1.67816 19.2333 1.41391 19.9585 1.41394C20.6838 1.41397 21.2986 1.67823 21.8031 2.20671C22.3075 2.73519 22.5677 3.36781 22.5834 4.10458C22.5992 4.84135 22.3391 5.46596 21.8031 5.9784C21.267 6.49085 20.6443 6.75511 19.9349 6.77117C19.525 6.77117 19.0914 6.63504 18.6342 6.36279L13.9283 11.1675C14.4171 11.8722 14.6614 12.6409 14.6614 13.4737C14.6614 14.0663 14.5274 14.6509 14.2594 15.2275L18.2559 18.1343C18.7762 17.7179 19.3358 17.5097 19.9349 17.5097V17.5097Z" fill="#4A4A4A"/>
</svg>
