<svg width="24" height="24" viewBox="0 0 24 24" fill="none" xmlns="http://www.w3.org/2000/svg">
<path d="M22.9955 13.1526C22.9955 14.5459 22.7046 15.8752 22.1228 17.1405C21.541 18.4057 20.7625 19.5028 19.7872 20.4317C18.8119 21.3606 17.6398 22.0973 16.2709 22.6418C14.902 23.1864 13.4818 23.4587 12.0103 23.4587C10.5388 23.4587 9.11008 23.1864 7.72406 22.6418C6.33803 22.0973 5.1745 21.3606 4.23347 20.4317C3.29244 19.5028 2.50534 18.4057 1.87217 17.1405C1.23901 15.8752 0.948114 14.5459 0.999499 13.1526C0.999499 11.519 1.38449 9.98949 2.15448 8.56412C2.92447 7.13874 4.00246 5.92956 5.38845 4.93657C5.79912 4.64828 6.26111 4.53617 6.77441 4.60023C7.28771 4.66429 7.68125 4.88852 7.95503 5.2729C8.26304 5.64125 8.38281 6.06567 8.31437 6.54615C8.24592 7.02663 8.00637 7.403 7.5957 7.67525C6.67173 8.33189 5.95307 9.14068 5.43973 10.1016C4.9264 11.0625 4.66973 12.0795 4.66973 13.1526C4.66973 14.0815 4.8665 14.9703 5.26004 15.8192C5.65358 16.668 6.17547 17.3967 6.82569 18.0053C7.47592 18.6139 8.25445 19.1023 9.1613 19.4707C10.0681 19.8391 11.0178 20.0233 12.0102 20.0233C13.0027 20.0232 13.9438 19.839 14.8335 19.4707C15.7233 19.1024 16.5104 18.6139 17.1948 18.0053C17.8793 17.3966 18.4012 16.6679 18.7605 15.8192C19.1198 14.9704 19.308 14.0815 19.3252 13.1526C19.3252 12.0635 19.0685 11.0465 18.5552 10.1016C18.0418 9.15668 17.3232 8.34789 16.3992 7.67525C16.0057 7.38696 15.7661 7.0106 15.6805 6.54615C15.5949 6.0817 15.7147 5.65729 16.0399 5.2729C16.3307 4.88852 16.7328 4.66429 17.2462 4.60023C17.7595 4.53617 18.2129 4.64828 18.6065 4.93657C19.9925 5.91353 21.0705 7.12271 21.8405 8.56412C22.6104 10.0055 22.9954 11.535 22.9954 13.1526H22.9955ZM13.8326 2.8465V11.4469C13.8326 11.9113 13.653 12.3117 13.2936 12.6481C12.9343 12.9844 12.5066 13.1525 12.0103 13.1525C11.5141 13.1525 11.0778 12.9844 10.7014 12.6481C10.3249 12.3117 10.1453 11.9113 10.1624 11.4469V2.8465C10.1624 2.38205 10.342 1.98167 10.7014 1.64535C11.0607 1.30903 11.497 1.14087 12.0103 1.14087C12.5237 1.14087 12.9514 1.30903 13.2936 1.64535C13.6358 1.98167 13.8155 2.38205 13.8326 2.8465V2.8465Z" fill="#4A4A4A"/>
</svg>
