<svg width="24" height="24" viewBox="0 0 24 24" fill="none" xmlns="http://www.w3.org/2000/svg">
<path d="M20.5836 13.5363V20.9944C20.5836 21.2738 20.4857 21.5065 20.29 21.6928C20.0943 21.879 19.8719 21.9814 19.6228 22H13.911V16.0223H10.0943V22H4.38258C4.11568 22 3.89327 21.8976 3.71533 21.6928C3.53739 21.4879 3.43953 21.2552 3.42175 20.9944V13.5363C3.42175 13.5177 3.42175 13.4991 3.42175 13.4805C3.42175 13.4618 3.42175 13.4432 3.42175 13.4246L11.9894 6.05025L20.557 13.4246C20.5748 13.4432 20.5837 13.4804 20.5837 13.5363H20.5836ZM23.8932 12.4469L22.9857 13.5922C22.8968 13.6853 22.79 13.7412 22.6654 13.7598H22.6121C22.4875 13.7598 22.3808 13.7319 22.2918 13.676L11.9893 4.68158L1.6868 13.676C1.56226 13.7505 1.44661 13.7784 1.33985 13.7598C1.21531 13.7412 1.10854 13.6853 1.01955 13.5922L0.0853944 12.4469C0.0142182 12.3352 -0.012464 12.2142 0.00534781 12.0838C0.0231596 11.9535 0.0765418 11.8418 0.165494 11.7486L10.8684 2.41898C11.1887 2.13966 11.5623 2 11.9894 2C12.4165 2 12.799 2.13966 13.1371 2.41898L16.767 5.57541V2.55862C16.767 2.40964 16.8114 2.2886 16.9004 2.19551C16.9893 2.10241 17.105 2.05587 17.2473 2.05587H20.1032C20.2456 2.05587 20.3612 2.10241 20.4502 2.19551C20.5391 2.2886 20.5836 2.40964 20.5836 2.55862V8.89944L23.8399 11.7486C23.9466 11.8231 24 11.9348 24 12.0838C24 12.2328 23.9644 12.3538 23.8932 12.4469V12.4469Z" fill="#4A4A4A"/>
</svg>
