<svg width="24" height="24" viewBox="0 0 24 24" fill="none" xmlns="http://www.w3.org/2000/svg">
<path d="M1.89787 22.5547C1.82582 22.4105 1.80177 21.1853 1.84982 19.864L1.89787 17.4617H7.159V22.7228L4.56446 22.7709C2.57049 22.8189 1.96992 22.7709 1.89787 22.5547V22.5547ZM9.6574 22.5547C9.60936 22.4105 9.58536 21.1853 9.60936 19.864L9.6814 17.4617H14.9185V22.7228L12.348 22.7709C10.33 22.8189 9.75345 22.7709 9.65736 22.5547H9.6574ZM17.417 22.5547C17.3689 22.4105 17.3449 21.1853 17.3689 19.864L17.441 17.4617H22.6781V22.7228L20.1076 22.7709C18.1136 22.8189 17.513 22.7709 17.4169 22.5547H17.417ZM1.89787 14.795C1.82582 14.6269 1.80177 13.4257 1.84982 12.1044L1.89787 9.70204H7.159V14.9632L4.56446 15.0112C2.57049 15.0593 1.96992 15.0112 1.89787 14.795V14.795ZM9.6574 14.795C9.60936 14.6269 9.58536 13.4257 9.60936 12.1044L9.6814 9.70204H14.9185V14.9632L12.348 15.0112C10.33 15.0593 9.75345 15.0112 9.65736 14.795H9.6574ZM17.417 14.795C17.3689 14.6269 17.3449 13.4257 17.3689 12.1044L17.441 9.70204H22.6781V14.9632L20.1076 15.0112C18.1136 15.0593 17.513 15.0112 17.4169 14.795H17.417ZM1.89787 7.01145C1.82582 6.86731 1.80177 5.66615 1.84982 4.34486L1.89787 1.9425H7.159V7.17959L4.56446 7.25164C2.57049 7.29969 1.96992 7.25164 1.89787 7.0114V7.01145ZM9.6574 7.01145C9.60936 6.86731 9.58536 5.66615 9.60936 4.34486L9.6814 1.9425H14.9185V7.17959L12.348 7.25164C10.33 7.29969 9.75345 7.25164 9.65736 7.0114L9.6574 7.01145ZM17.417 7.01145C17.3689 6.86731 17.3449 5.66615 17.3689 4.34486L17.441 1.9425H22.6781V7.17959L20.1076 7.25164C18.1136 7.29969 17.513 7.25164 17.4169 7.0114L17.417 7.01145Z" fill="#4A4A4A"/>
</svg>
