<svg width="24" height="24" viewBox="0 0 24 24" fill="none" xmlns="http://www.w3.org/2000/svg">
<path fill-rule="evenodd" clip-rule="evenodd" d="M12 24C18.6274 24 24 18.6274 24 12C24 5.37258 18.6274 0 12 0C5.37258 0 0 5.37258 0 12C0 18.6274 5.37258 24 12 24ZM7.12267 7.66678C8.27607 5.9581 9.74519 5 12.0134 5C14.4254 5 17 6.94109 17 9.5C17 11.6133 15.6231 12.4325 14.582 13.0519C13.9491 13.4284 13.4403 13.7311 13.4403 14.2059V14.375C13.4403 14.7633 13.135 15.0781 12.7583 15.0781H10.6989C10.3222 15.0781 10.0169 14.7633 10.0169 14.375V14.0882C10.0169 12.3202 11.286 11.588 12.2828 11.0129C12.3072 10.9988 12.3315 10.9848 12.3556 10.9709C13.2188 10.472 13.7478 10.1327 13.7478 9.47196C13.7478 8.59798 12.6665 8.01793 11.7923 8.01793C10.6804 8.01793 10.1524 8.54727 9.44059 9.46663C9.20982 9.7647 8.79042 9.81857 8.49565 9.58815L7.26981 8.62988C6.97794 8.40172 6.91344 7.97674 7.12267 7.66678ZM9.76016 17.9706C9.76016 16.8516 10.6432 15.9412 11.7286 15.9412C12.814 15.9412 13.6971 16.8516 13.6971 17.9706C13.6971 19.0896 12.814 20 11.7286 20C10.6432 20 9.76016 19.0896 9.76016 17.9706Z" fill="#4A4A4A"/>
</svg>
