<svg width="24" height="24" viewBox="0 0 24 24" fill="none" xmlns="http://www.w3.org/2000/svg">
<path d="M11.6845 2C8.66025 2 6.70143 3.27746 5.16356 5.5557C4.88458 5.96898 4.97059 6.53563 5.35975 6.83984L6.9942 8.11754C7.38722 8.42477 7.94642 8.35293 8.25412 7.95551C9.2032 6.72969 9.90721 6.02391 11.3897 6.02391C12.5553 6.02391 13.9971 6.7973 13.9971 7.96262C13.9971 8.84355 13.2917 9.29598 12.1408 9.96121C10.7986 10.737 9.02255 11.7025 9.02255 14.1177V14.5C9.02255 15.0178 9.42966 15.4375 9.93188 15.4375H12.6777C13.1799 15.4375 13.5871 15.0178 13.5871 14.5V14.2745C13.5871 12.6003 18.3333 12.5305 18.3333 8C18.3334 4.58813 14.9006 2 11.6845 2ZM11.3048 16.5882C9.85762 16.5882 8.68022 17.8021 8.68022 19.2941C8.68022 20.7861 9.85762 22 11.3048 22C12.752 22 13.9294 20.7861 13.9294 19.2941C13.9294 17.8021 12.752 16.5882 11.3048 16.5882Z" fill="#4A4A4A"/>
</svg>
