<svg width="24" height="24" viewBox="0 0 24 24" fill="none" xmlns="http://www.w3.org/2000/svg">
<path d="M1.27048 11.5519C0.891854 10.1586 0.891854 8.77321 1.27048 7.39587C1.64911 6.01853 2.36522 4.81736 3.41881 3.79237C4.209 3.0076 5.11444 2.41502 6.13514 2.01464C7.15583 1.61425 8.20944 1.41406 9.29596 1.41406C10.366 1.41406 11.4114 1.61425 12.4321 2.01464C13.4527 2.41502 14.3582 3.0076 15.1484 3.79237C16.0044 4.62517 16.6382 5.57809 17.0498 6.65115C17.4614 7.72421 17.6343 8.82128 17.5684 9.94237C17.5025 11.0635 17.2062 12.1205 16.6794 13.1134C17.1403 13.2416 17.5437 13.4738 17.8894 13.8101L22.1861 17.9661C22.7623 18.5267 23.0504 19.2074 23.0504 20.0082C23.0504 20.809 22.7623 21.4896 22.1861 22.0502C21.6099 22.6107 20.9102 22.891 20.0871 22.891C19.264 22.891 18.5643 22.6107 17.9881 22.0502L13.7161 17.8701C13.3539 17.5498 13.107 17.1574 12.9753 16.6929C11.8229 17.2535 10.5965 17.5338 9.29591 17.5338C8.20939 17.5338 7.15578 17.3336 6.13509 16.9332C5.11439 16.5328 4.20895 15.9482 3.41876 15.1795C2.36517 14.1545 1.64906 12.9453 1.27043 11.5519H1.27048ZM3.76458 9.48589C3.76458 10.9753 4.29962 12.2406 5.36969 13.2816C6.4562 14.3226 7.76498 14.8431 9.29601 14.8431C10.8106 14.8431 12.1029 14.3226 13.1729 13.2816C14.243 12.2406 14.7863 10.9753 14.8027 9.48589C14.8192 7.99645 14.2759 6.73121 13.1729 5.69019C12.0864 4.63317 10.7941 4.10465 9.29601 4.10465C7.78146 4.10465 6.47268 4.63317 5.36969 5.69019C4.29962 6.73121 3.76458 7.99645 3.76458 9.48589V9.48589Z" fill="#4A4A4A"/>
</svg>
