<svg width="24" height="24" viewBox="0 0 24 24" fill="none" xmlns="http://www.w3.org/2000/svg">
<path d="M2 4C2 3.44772 2.44772 3 3 3H21C21.5523 3 22 3.44772 22 4C22 4.55228 21.5523 5 21 5H3C2.44772 5 2 4.55228 2 4Z" fill="#4A4A4A"/>
<path d="M2 12C2 11.4477 2.63959 11 3.42857 11H20.5714C21.3604 11 22 11.4477 22 12C22 12.5523 21.3604 13 20.5714 13H3.42857C2.63959 13 2 12.5523 2 12Z" fill="#4A4A4A"/>
<path d="M2 20C2 19.4477 2.49746 19 3.11111 19H20.8889C21.5025 19 22 19.4477 22 20C22 20.5523 21.5025 21 20.8889 21H3.11111C2.49746 21 2 20.5523 2 20Z" fill="#4A4A4A"/>
</svg>
