<svg width="24" height="24" viewBox="0 0 24 24" fill="none" xmlns="http://www.w3.org/2000/svg">
<path d="M2 4C2 3.44772 2.44772 3 3 3H21C21.5523 3 22 3.44772 22 4C22 4.55228 21.5523 5 21 5H3C2.44772 5 2 4.55228 2 4Z" fill="#4A4A4A"/>
<path d="M8 12C8 11.4477 8.44772 11 9 11H21C21.5523 11 22 11.4477 22 12C22 12.5523 21.5523 13 21 13H9C8.44772 13 8 12.5523 8 12Z" fill="#4A4A4A"/>
<path d="M4 20C4 19.4477 4.44772 19 5 19H21C21.5523 19 22 19.4477 22 20C22 20.5523 21.5523 21 21 21H5C4.44772 21 4 20.5523 4 20Z" fill="#4A4A4A"/>
</svg>
