<svg width="24" height="24" viewBox="0 0 24 24" fill="none" xmlns="http://www.w3.org/2000/svg">
<path d="M2 12C2 11.4477 2.44772 11 3 11H21C21.5523 11 22 11.4477 22 12C22 12.5523 21.5523 13 21 13H3C2.44772 13 2 12.5523 2 12Z" fill="#4A4A4A"/>
<path d="M5 4C5 3.44772 5.44772 3 6 3H18C18.5523 3 19 3.44772 19 4C19 4.55228 18.5523 5 18 5H6C5.44772 5 5 4.55228 5 4Z" fill="#4A4A4A"/>
<path d="M5 20C5 19.4477 5.34822 19 5.77778 19H18.2222C18.6518 19 19 19.4477 19 20C19 20.5523 18.6518 21 18.2222 21H5.77778C5.34822 21 5 20.5523 5 20Z" fill="#4A4A4A"/>
</svg>
