<svg width="24" height="24" viewBox="0 0 24 24" fill="none" xmlns="http://www.w3.org/2000/svg">
<g clip-path="url(#clip0_2745_18391)">
<path fill-rule="evenodd" clip-rule="evenodd" d="M17.5039 1.67285C17.8826 1.6464 18.2437 1.83669 18.4359 2.16407C18.8055 2.7934 19.336 4.09872 19.8402 5.34396C19.8668 5.4096 19.8933 5.47525 19.9199 5.54083C20.4216 6.78052 20.9144 7.99792 21.2887 8.74573L20.3945 9.19333L21.2887 8.74573C21.8505 9.86805 23.2506 12.7946 23.4246 15.4986C23.5124 16.8628 23.2997 18.3378 22.331 19.4771C21.3443 20.6375 19.758 21.2371 17.5736 21.2371C15.3878 21.2371 13.7969 20.6371 12.7971 19.4847C11.8138 18.3514 11.5758 16.8806 11.6454 15.5121C11.7832 12.801 13.1586 9.87563 13.7744 8.72236C14.6348 7.11077 16.1894 3.40271 16.6492 2.28885C16.7941 1.93793 17.1252 1.6993 17.5039 1.67285ZM17.6077 5.16544C16.9506 6.69767 16.1121 8.59019 15.5387 9.66429L15.5387 9.6643C14.9476 10.7714 13.757 13.3679 13.6428 15.6136C13.5864 16.7235 13.8008 17.5898 14.3077 18.174C14.798 18.7391 15.7349 19.2371 17.5736 19.2371C19.4137 19.2371 20.3336 18.7387 20.8073 18.1816C21.2989 17.6034 21.5005 16.7412 21.4288 15.6271C21.2838 13.3743 20.0699 10.779 19.5002 9.64092C19.0885 8.81831 18.5682 7.53251 18.083 6.33325C18.0506 6.25326 18.0184 6.17365 17.9864 6.09458C17.8552 5.77061 17.7284 5.45868 17.6077 5.16544Z" fill="#4A4A4A"/>
<path fill-rule="evenodd" clip-rule="evenodd" d="M12.8428 22.5349C12.8235 23.0868 12.3604 23.5186 11.8085 23.4994L11.5503 23.4904C11.461 23.4872 11.3749 23.4725 11.2933 23.4477C11.2102 23.4668 11.1232 23.4754 11.0339 23.4723L10.7758 23.4633C10.0551 23.4381 9.3524 23.3429 8.67434 23.1839C8.13662 23.0579 7.80288 22.5198 7.9289 21.9821C8.05493 21.4444 8.59299 21.1107 9.13071 21.2367C9.68259 21.366 10.2558 21.4439 10.8456 21.4645L11.1037 21.4735C11.193 21.4767 11.2792 21.4914 11.3607 21.5162C11.4439 21.4971 11.5308 21.4885 11.6201 21.4916L11.8783 21.5006C12.4302 21.5199 12.862 21.9829 12.8428 22.5349ZM6.22846 21.2061C5.90538 21.654 5.28036 21.7552 4.83243 21.4322C3.68156 20.6021 2.7026 19.5523 1.95482 18.3463C1.66378 17.8769 1.80834 17.2605 2.27772 16.9694C2.74709 16.6784 3.36353 16.823 3.65458 17.2923C4.26459 18.2761 5.06355 19.1329 6.00239 19.8101C6.45032 20.1331 6.55154 20.7582 6.22846 21.2061ZM1.62218 15.219C1.07699 15.3072 0.563514 14.9368 0.475305 14.3916C0.364073 13.7041 0.318036 12.9964 0.343202 12.2758C0.368369 11.5551 0.463656 10.8524 0.622575 10.1743C0.748599 9.6366 1.28666 9.30286 1.82438 9.42888C2.36209 9.55491 2.69583 10.093 2.56981 10.6307C2.44047 11.1826 2.36258 11.7558 2.34198 12.3456C2.32139 12.9353 2.3591 13.5126 2.44963 14.0721C2.53784 14.6173 2.16738 15.1308 1.62218 15.219ZM2.60042 7.72844C2.15249 7.40536 2.05128 6.78034 2.37436 6.33241C3.20444 5.18154 4.25424 4.20258 5.46021 3.4548C5.92959 3.16376 6.54603 3.30833 6.83707 3.7777C7.12812 4.24707 6.98355 4.86352 6.51418 5.15456C5.53039 5.76457 4.6736 6.56354 3.99645 7.50238C3.67337 7.9503 3.04835 8.05152 2.60042 7.72844ZM8.58751 3.12217C8.4993 2.57697 8.86976 2.0635 9.41496 1.97529C10.1025 1.86406 10.8101 1.81802 11.5308 1.84319L11.7889 1.8522C11.8782 1.85532 11.9643 1.87005 12.0459 1.89488C12.1291 1.8758 12.216 1.86712 12.3053 1.87023L12.5635 1.87925C13.1154 1.89852 13.5472 2.36159 13.528 2.91354C13.5087 3.46549 13.0456 3.89731 12.4937 3.87803L12.2355 3.86902C12.1462 3.8659 12.0601 3.85117 11.9785 3.82633C11.8954 3.84542 11.8084 3.8541 11.7191 3.85098L11.461 3.84197C10.8712 3.82137 10.2939 3.85908 9.73439 3.94962C9.18919 4.03782 8.67572 3.66736 8.58751 3.12217Z" fill="#4A4A4A"/>
</g>
<defs>
<clipPath id="clip0_2745_18391">
<rect width="24" height="24" fill="white"/>
</clipPath>
</defs>
</svg>
