<svg width="24" height="24" viewBox="0 0 24 24" fill="none" xmlns="http://www.w3.org/2000/svg">
<path fill-rule="evenodd" clip-rule="evenodd" d="M19.3332 11C19.8855 11 20.3332 10.5523 20.3332 10C20.3332 9.44771 19.8855 9 19.3332 9H16.4141L22.707 2.70711C23.0975 2.31658 23.0975 1.68342 22.707 1.29289C22.3164 0.902369 21.6833 0.902369 21.2928 1.29289L14.9999 7.58579V4.66667C14.9999 4.11438 14.5522 3.66667 13.9999 3.66667C13.4476 3.66667 12.9999 4.11438 12.9999 4.66667V10C12.9999 10.5523 13.4476 11 13.9999 11H19.3332ZM4.66667 13C4.11438 13 3.66667 13.4477 3.66667 14C3.66667 14.5523 4.11438 15 4.66667 15H7.58579L1.29289 21.2929C0.902369 21.6834 0.902369 22.3166 1.29289 22.7071C1.68342 23.0976 2.31658 23.0976 2.70711 22.7071L9 16.4142V19.3333C9 19.8856 9.44772 20.3333 10 20.3333C10.5523 20.3333 11 19.8856 11 19.3333V14C11 13.4477 10.5523 13 10 13H4.66667Z" fill="#4A4A4A"/>
</svg>
