<svg width="24" height="24" viewBox="0 0 24 24" fill="none" xmlns="http://www.w3.org/2000/svg">
<path fill-rule="evenodd" clip-rule="evenodd" d="M17.3273 5.76007C17.736 5.38856 18.3684 5.41868 18.7399 5.82733L23.7399 11.3273C24.0867 11.7088 24.0867 12.2913 23.7399 12.6727L18.7399 18.1727C18.3684 18.5813 17.736 18.6115 17.3273 18.2399C16.9187 17.8684 16.8886 17.236 17.2601 16.8273L21.6485 12L17.2601 7.17268C16.8886 6.76402 16.9187 6.13157 17.3273 5.76007Z" fill="#4A4A4A"/>
<path fill-rule="evenodd" clip-rule="evenodd" d="M6.67267 5.76007C7.08133 6.13157 7.11145 6.76402 6.73994 7.17268L2.35146 12L6.73994 16.8273C7.11145 17.236 7.08133 17.8684 6.67267 18.2399C6.26402 18.6115 5.63157 18.5813 5.26006 18.1727L0.26006 12.6727C-0.0866866 12.2913 -0.0866866 11.7088 0.26006 11.3273L5.26006 5.82733C5.63157 5.41868 6.26402 5.38856 6.67267 5.76007Z" fill="#4A4A4A"/>
<path fill-rule="evenodd" clip-rule="evenodd" d="M8.97852 21.6086C8.45113 21.4447 8.15654 20.8842 8.32051 20.3568L13.6964 3.06692C13.8604 2.53954 14.4208 2.24494 14.9482 2.40892C15.4756 2.57289 15.7702 3.13335 15.6062 3.66073L10.2303 20.9506C10.0664 21.478 9.5059 21.7726 8.97852 21.6086Z" fill="#4A4A4A"/>
</svg>
