<svg width="24" height="24" viewBox="0 0 24 24" fill="none" xmlns="http://www.w3.org/2000/svg">
<path d="M21.3699 2.1C21.1806 2.02257 20.9739 1.99749 20.7716 2.0274C20.5693 2.05731 20.3787 2.14111 20.2199 2.27C20.2199 2.27 19.2999 3 16.7199 3C15.3962 2.9331 14.0969 2.61761 12.8899 2.07C11.4358 1.42163 9.87086 1.05839 8.27988 1C4.84988 1 3.53988 2.08 3.27988 2.29C3.09635 2.48034 2.99568 2.73562 2.99988 3V22C2.99964 22.1365 3.02735 22.2717 3.08131 22.3971C3.13528 22.5225 3.21435 22.6355 3.31366 22.7292C3.41297 22.8229 3.53041 22.8952 3.65875 22.9418C3.78709 22.9884 3.9236 23.0082 4.05988 23C4.19535 23.0068 4.33078 22.9859 4.45794 22.9387C4.58509 22.8915 4.70132 22.8189 4.79954 22.7254C4.89776 22.6318 4.97592 22.5193 5.02927 22.3946C5.08263 22.2699 5.11005 22.1356 5.10988 22V15.54C6.11585 15.1357 7.19678 14.9515 8.27988 15C9.6036 15.0669 10.9029 15.3824 12.1099 15.93C13.5639 16.5784 15.1289 16.9416 16.7199 17C20.1499 17 21.4599 15.92 21.7199 15.71C21.9034 15.5197 22.0041 15.2644 21.9999 15V3C21.9942 2.80487 21.9315 2.61567 21.8195 2.45574C21.7076 2.29581 21.5513 2.17215 21.3699 2.1ZM19.8899 14.46C18.885 14.8683 17.8032 15.0526 16.7199 15C15.3962 14.9331 14.0969 14.6176 12.8899 14.07C11.4343 13.4263 9.87021 13.0632 8.27988 13C7.21015 12.9806 6.14301 13.1119 5.10988 13.39V3.54C6.11473 3.13169 7.19652 2.94741 8.27988 3C9.6036 3.0669 10.9029 3.38239 12.1099 3.93C13.5639 4.57837 15.1289 4.94161 16.7199 5C17.7896 5.0194 18.8568 4.88811 19.8899 4.61V14.46Z" fill="#4A4A4A"/>
</svg>
