<svg width="24" height="24" viewBox="0 0 24 24" fill="none" xmlns="http://www.w3.org/2000/svg">
<path fill-rule="evenodd" clip-rule="evenodd" d="M3.05672 5.5C3.02539 5.5 3 5.52539 3 5.55672V18.5877L21 18.5877V7.87356H12.303C11.7507 7.87356 11.303 7.42585 11.303 6.87357C11.303 6.11497 10.6881 5.5 9.92945 5.5H3.05672ZM1 5.55672C1 4.42083 1.92083 3.5 3.05672 3.5H9.92945C11.4445 3.5 12.7262 4.49864 13.1523 5.87356H21C22.1046 5.87356 23 6.76899 23 7.87356V18.5877C23 19.6923 22.1046 20.5877 21 20.5877H3C1.89543 20.5877 1 19.6923 1 18.5877V5.55672Z" fill="#4A4A4A"/>
</svg>
