<svg width="24" height="24" viewBox="0 0 24 24" fill="none" xmlns="http://www.w3.org/2000/svg">
<path fill-rule="evenodd" clip-rule="evenodd" d="M12 3C7.02944 3 3 7.02944 3 12C3 16.9706 7.02944 21 12 21C16.9706 21 21 16.9706 21 12C21 7.02944 16.9706 3 12 3ZM1 12C1 5.92487 5.92487 1 12 1C18.0751 1 23 5.92487 23 12C23 18.0751 18.0751 23 12 23C5.92487 23 1 18.0751 1 12Z" fill="#4A4A4A"/>
<path fill-rule="evenodd" clip-rule="evenodd" d="M12.01 17C11.4577 17 11.01 16.5523 11.01 16L11.01 11C11.01 10.4477 11.4577 10 12.01 10C12.5623 10 13.01 10.4477 13.01 11L13.01 16C13.01 16.5523 12.5623 17 12.01 17Z" fill="#4A4A4A"/>
<path fill-rule="evenodd" clip-rule="evenodd" d="M13.01 7.5C13.01 8.05228 12.5623 8.5 12.01 8.5L12 8.5C11.4477 8.5 11 8.05228 11 7.5C11 6.94772 11.4477 6.5 12 6.5L12.01 6.5C12.5623 6.5 13.01 6.94772 13.01 7.5Z" fill="#4A4A4A"/>
</svg>
