<svg width="24" height="24" viewBox="0 0 24 24" fill="none" xmlns="http://www.w3.org/2000/svg">
<g clip-path="url(#clip0_2243_15700)">
<path fill-rule="evenodd" clip-rule="evenodd" d="M5.3329 13.3335C4.62564 14.0407 4.22831 15 4.22831 16.0002C4.22831 17.0004 4.62564 17.9596 5.3329 18.6669C6.04016 19.3742 6.99941 19.7715 7.99963 19.7715C8.49488 19.7715 8.98529 19.674 9.44285 19.4844C9.9004 19.2949 10.3162 19.0171 10.6664 18.6669L12.6664 16.6669C13.0346 16.2987 13.6316 16.2987 13.9998 16.6669C14.368 17.0351 14.368 17.632 13.9998 18.0002L11.9997 20.0003C11.4744 20.5256 10.8508 20.9423 10.1645 21.2266C9.47812 21.5108 8.74251 21.6572 7.99963 21.6572C6.4993 21.6572 5.06043 21.0612 3.99954 20.0003C2.93865 18.9394 2.34265 17.5005 2.34265 16.0002C2.34265 14.4999 2.93865 13.061 3.99954 12.0001L5.99958 10.0001C6.36778 9.63185 6.96475 9.63185 7.33295 10.0001C7.70114 10.3682 7.70114 10.9652 7.33295 11.3334L5.3329 13.3335ZM9.99967 7.33333C9.63147 6.96513 9.63147 6.36816 9.99967 5.99996L11.9997 3.99992C12.525 3.47462 13.1486 3.05793 13.835 2.77364C14.5213 2.48935 15.2569 2.34303 15.9998 2.34303C16.7427 2.34303 17.4783 2.48935 18.1646 2.77364C18.851 3.05793 19.4746 3.47462 19.9999 3.99992C20.5252 4.52522 20.9419 5.14884 21.2262 5.83517C21.5105 6.52151 21.6568 7.25712 21.6568 8.00001C21.6568 8.74289 21.5105 9.4785 21.2262 10.1648C20.9419 10.8512 20.5252 11.4748 19.9999 12.0001L17.9998 14.0001C17.6316 14.3683 17.0347 14.3683 16.6665 14.0001C16.2983 13.6319 16.2983 13.035 16.6665 12.6668L18.6665 10.6667C19.0167 10.3165 19.2945 9.90078 19.484 9.44323C19.6736 8.98567 19.7711 8.49526 19.7711 8.00001C19.7711 7.50475 19.6736 7.01434 19.484 6.55679C19.2945 6.09923 19.0167 5.68348 18.6665 5.33328C18.3163 4.98308 17.9006 4.70529 17.443 4.51576C16.9855 4.32624 16.4951 4.22869 15.9998 4.22869C15.5045 4.22869 15.0141 4.32624 14.5566 4.51576C14.099 4.70529 13.6833 4.98308 13.3331 5.33328L11.333 7.33333C10.9648 7.70152 10.3679 7.70152 9.99967 7.33333Z" fill="#4A4A4A"/>
<path fill-rule="evenodd" clip-rule="evenodd" d="M8.46425 15.5355C8.07372 15.145 8.07372 14.5118 8.46425 14.1213L14.1211 8.46447C14.5116 8.07394 15.1448 8.07394 15.5353 8.46447C15.9258 8.85499 15.9258 9.48816 15.5353 9.87868L9.87846 15.5355C9.48794 15.9261 8.85477 15.9261 8.46425 15.5355Z" fill="#4A4A4A"/>
</g>
<defs>
<clipPath id="clip0_2243_15700">
<rect width="24" height="24" fill="white"/>
</clipPath>
</defs>
</svg>
