<svg width="24" height="24" viewBox="0 0 24 24" fill="none" xmlns="http://www.w3.org/2000/svg">
<g clip-path="url(#clip0_6_2)">
<path d="M11.9447 22.6799C6.04842 22.5785 1.34825 17.6322 1.44961 11.6346C1.54518 5.78183 6.18744 1.05848 11.9447 0.960013C13.5292 0.956275 15.0935 1.3159 16.5174 2.01125C16.8482 2.15861 17.1078 2.42993 17.2405 2.76682C17.3732 3.10371 17.3683 3.47923 17.2269 3.81256C17.1595 3.97687 17.06 4.12611 16.9343 4.25158C16.8086 4.37705 16.6592 4.47623 16.4948 4.54336C16.3304 4.61047 16.1542 4.64419 15.9766 4.64252C15.799 4.64086 15.6235 4.60385 15.4604 4.53366C15.4214 4.51826 15.3836 4.49986 15.3475 4.47863C14.3982 4.02253 13.3676 3.76024 12.3158 3.70709C11.264 3.65393 10.2122 3.81099 9.22176 4.16907C8.2314 4.52714 7.32234 5.07907 6.54774 5.79256C5.77315 6.50604 5.14855 7.3668 4.71049 8.32452C3.796 10.2617 3.67808 12.4803 4.38208 14.5035C5.08607 16.5267 6.55578 18.1928 8.47524 19.1439C9.42606 19.6036 10.4591 19.8687 11.5138 19.9236C12.5684 19.9785 13.6234 19.8221 14.6167 19.4635C15.6101 19.105 16.5218 18.5515 17.2982 17.8357C18.0747 17.1199 18.7003 16.2561 19.1383 15.2951C19.6468 14.2072 19.9108 13.021 19.9115 11.8199C19.9484 11.1039 19.8572 10.387 19.6422 9.70302C19.5275 9.35736 19.5545 8.98032 19.7174 8.65464C19.8803 8.3289 20.1656 8.08104 20.511 7.96542C20.6802 7.91124 20.8585 7.89126 21.0355 7.90662C21.2124 7.92198 21.3846 7.97232 21.5419 8.05476C21.6993 8.1372 21.8387 8.25012 21.9521 8.38692C22.0654 8.52372 22.1504 8.68164 22.2022 8.85156C22.4989 9.80208 22.633 10.7959 22.599 11.791C22.6279 17.7741 17.8814 22.651 11.9968 22.6799H11.9447Z" fill="#4A4A4A"/>
<path d="M19.0874 7.3254C19.8727 7.3254 20.5094 6.67836 20.5094 5.88027C20.5094 5.08217 19.8727 4.43518 19.0874 4.43518C18.3021 4.43518 17.6655 5.08217 17.6655 5.88027C17.6655 6.67836 18.3021 7.3254 19.0874 7.3254Z" fill="#4A4A4A"/>
</g>
<defs>
<clipPath id="clip0_6_2">
<rect width="24" height="24" fill="white"/>
</clipPath>
</defs>
</svg>
