<svg width="24" height="24" viewBox="0 0 24 24" fill="none" xmlns="http://www.w3.org/2000/svg">
<g clip-path="url(#clip0_178_1246)">
<path fill-rule="evenodd" clip-rule="evenodd" d="M12.3035 21C15.3194 21 17.9541 19.0758 19.1419 16.2476C19.3554 15.7393 19.9363 15.5021 20.4393 15.7179C20.9424 15.9337 21.1771 16.5207 20.9635 17.0291C19.4966 20.5219 16.1904 23 12.3035 23C7.65925 23 3.8593 19.4782 3.00438 14.8867L1.85913 17.1423C1.60732 17.6382 1.01211 17.8391 0.529684 17.5909C0.0472622 17.3427 -0.139683 16.7394 0.112131 16.2435L2.51024 11.5204C2.64479 11.2554 2.88631 11.0625 3.17016 10.9934C3.454 10.9242 3.7512 10.9858 3.98219 11.1618L8.09935 14.2973C8.53168 14.6266 8.61421 15.2552 8.2837 15.7015C7.95319 16.1478 7.33479 16.2426 6.90247 15.9134L4.92888 14.4103C5.57935 18.1954 8.67307 21 12.3035 21ZM17.0977 8.08661C16.6654 7.75736 16.047 7.85222 15.7165 8.29849C15.386 8.74476 15.4685 9.37344 15.9008 9.70269L20.018 12.8382C20.249 13.0142 20.5462 13.0758 20.83 13.0066C21.1139 12.9375 21.3554 12.7446 21.4899 12.4796L23.8881 7.75651C24.1399 7.26057 23.9529 6.65732 23.4705 6.40914C22.9881 6.16095 22.3929 6.36179 22.141 6.85774L20.9958 9.11331C20.1409 4.52182 16.3409 1 11.6967 1C7.80976 1 4.50361 3.47814 3.03665 6.9709C2.82312 7.47928 3.05782 8.06634 3.56085 8.28213C4.06388 8.49792 4.64476 8.26073 4.85828 7.75235C6.04613 4.92416 8.68074 3 11.6967 3C15.3271 3 18.4208 5.80463 19.0713 9.58966L17.0977 8.08661Z" fill="#4A4A4A"/>
</g>
<defs>
<clipPath id="clip0_178_1246">
<rect width="24" height="24" fill="white"/>
</clipPath>
</defs>
</svg>
