<svg width="24" height="24" viewBox="0 0 24 24" fill="none" xmlns="http://www.w3.org/2000/svg">
<path fill-rule="evenodd" clip-rule="evenodd" d="M12 3C7.02944 3 3 7.02944 3 12C3 16.9706 7.02944 21 12 21C16.9706 21 21 16.9706 21 12C21 7.02944 16.9706 3 12 3ZM1 12C1 5.92487 5.92487 1 12 1C18.0751 1 23 5.92487 23 12C23 18.0751 18.0751 23 12 23C5.92487 23 1 18.0751 1 12Z" fill="#4A4A4A"/>
<path fill-rule="evenodd" clip-rule="evenodd" d="M7 10C7 9.44772 7.44772 9 8 9H9C9.55228 9 10 9.44772 10 10C10 10.5523 9.55228 11 9 11H8C7.44772 11 7 10.5523 7 10Z" fill="#4A4A4A"/>
<path fill-rule="evenodd" clip-rule="evenodd" d="M14 10C14 9.44772 14.4477 9 15 9H16C16.5523 9 17 9.44772 17 10C17 10.5523 16.5523 11 16 11H15C14.4477 11 14 10.5523 14 10Z" fill="#4A4A4A"/>
<path fill-rule="evenodd" clip-rule="evenodd" d="M7.69194 15.4109C8.01729 14.9646 8.64282 14.8666 9.0891 15.1919C9.44439 15.451 9.88457 15.668 10.3893 15.8194C10.8934 15.9708 11.4417 16.0505 12 16.0505C12.5583 16.0505 13.1066 15.9708 13.6108 15.8194C14.1154 15.668 14.5556 15.451 14.9109 15.1919C15.3572 14.8666 15.9827 14.9646 16.3081 15.4109C16.6334 15.8572 16.5354 16.4827 16.0891 16.8081C15.5319 17.2143 14.883 17.5257 14.1857 17.735C13.4879 17.9445 12.7455 18.0505 12 18.0505C11.2546 18.0505 10.5121 17.9445 9.81431 17.735C9.11702 17.5257 8.46809 17.2143 7.91092 16.8081C7.46463 16.4827 7.3666 15.8572 7.69194 15.4109Z" fill="#4A4A4A"/>
</svg>
