<svg width="24" height="24" viewBox="0 0 24 24" fill="none" xmlns="http://www.w3.org/2000/svg">
<path fill-rule="evenodd" clip-rule="evenodd" d="M10.375 2C9.89379 2 9.48081 2.34274 9.39213 2.81571L6.67772 17.2926L4.56133 11.6489C4.41497 11.2586 4.04184 11 3.625 11H2.5C1.94772 11 1.5 11.4477 1.5 12C1.5 12.5523 1.94772 13 2.5 13H2.932L6.06367 21.3511C6.22125 21.7713 6.63949 22.0351 7.0866 21.9962C7.53371 21.9574 7.90016 21.6254 7.98287 21.1843L11.2049 4H21.625C22.1773 4 22.625 3.55228 22.625 3C22.625 2.44772 22.1773 2 21.625 2H10.375ZM19.8712 14.043C19.2909 14.6233 18.7393 15.3516 18.2513 16.0582C18.45 16.5793 18.6094 17.0346 18.7448 17.4227L18.7496 17.4365C18.9261 17.9427 19.0485 18.2937 19.1664 18.5593C19.2234 18.6879 19.2693 18.7726 19.3055 18.8286C19.3188 18.8491 19.3296 18.8638 19.3376 18.874C19.3468 18.8746 19.3591 18.875 19.375 18.875H20.5C21.0523 18.875 21.5 19.3227 21.5 19.875C21.5 20.4273 21.0523 20.875 20.5 20.875H19.375C18.9065 20.875 18.4511 20.7499 18.0603 20.4182C17.7101 20.1211 17.4958 19.7257 17.3381 19.3702C17.1862 19.0277 17.0396 18.607 16.882 18.1551L16.882 18.155L16.882 18.1549L16.8564 18.0814L16.8441 18.0463C16.5172 18.4632 16.1647 18.8746 15.793 19.2462C14.9835 20.0557 13.8904 20.875 12.625 20.875C12.0727 20.875 11.625 20.4273 11.625 19.875C11.625 19.3227 12.0727 18.875 12.625 18.875C13.0471 18.875 13.6415 18.5693 14.3788 17.832C14.9618 17.2489 15.5158 16.5166 16.0055 15.8069C15.8121 15.3024 15.6554 14.8603 15.5216 14.4814L15.5101 14.4487L15.5101 14.4487L15.5101 14.4486C15.3319 13.9438 15.2077 13.5919 15.0887 13.3247C15.0304 13.1936 14.9835 13.1069 14.9462 13.0493C14.9319 13.0273 14.9204 13.0116 14.9119 13.001C14.9029 13.0004 14.8907 13 14.875 13H13.75C13.1977 13 12.75 12.5523 12.75 12C12.75 11.4477 13.1977 11 13.75 11H14.875C15.3441 11 15.8 11.1254 16.1915 11.4588C16.5413 11.7566 16.7565 12.1533 16.9158 12.511C17.0683 12.8535 17.217 13.2752 17.3776 13.7308L17.4076 13.8158L17.4103 13.8232C17.7359 13.4082 18.087 12.9988 18.457 12.6288C19.2665 11.8193 20.3596 11 21.625 11C22.1773 11 22.625 11.4477 22.625 12C22.625 12.5523 22.1773 13 21.625 13C21.2029 13 20.6085 13.3057 19.8712 14.043Z" fill="#4A4A4A"/>
</svg>
