<svg width="24" height="24" viewBox="0 0 24 24" fill="none" xmlns="http://www.w3.org/2000/svg">
<path fill-rule="evenodd" clip-rule="evenodd" d="M15.8645 3.93149C15.4046 3.87951 14.9369 3.89457 14.4762 3.9785C13.5239 4.15201 12.6471 4.61164 11.9626 5.29612C11.2781 5.9806 10.8185 6.85742 10.645 7.80974C10.4715 8.76207 10.5923 9.74465 10.9914 10.6266C11.1548 10.9877 11.0774 11.4123 10.7971 11.6926L4.21611 18.2737C4.01583 18.474 3.90332 18.7456 3.90332 19.0288C3.90332 19.3121 4.01583 19.5837 4.21611 19.784C4.41639 19.9842 4.68802 20.0968 4.97126 20.0968C5.25449 20.0968 5.52612 19.9842 5.7264 19.784L12.3074 13.2029C12.5877 12.9226 13.0124 12.8453 13.3735 13.0087C14.2554 13.4078 15.238 13.5286 16.1903 13.3551C17.1427 13.1816 18.0195 12.722 18.704 12.0375C19.3884 11.353 19.8481 10.4762 20.0216 9.52385C20.1055 9.06322 20.1206 8.59552 20.0686 8.13555L17.6191 10.5851C17.263 10.9341 16.7843 11.1295 16.2857 11.1295C15.7871 11.1295 15.3084 10.9341 14.9523 10.5851L14.9455 10.5784L13.415 9.04779C13.066 8.69173 12.8705 8.21299 12.8705 7.7144C12.8705 7.21582 13.066 6.73711 13.415 6.38106L13.4217 6.37425L15.8645 3.93149ZM14.1348 2.10457C15.468 1.86164 16.8437 2.03081 18.0783 2.58952C18.3632 2.71842 18.5666 2.97891 18.6227 3.28649C18.6787 3.59408 18.5802 3.90958 18.3591 4.13065L14.7754 7.7144L16.2857 9.2247L19.8694 5.64095C20.0905 5.41987 20.406 5.32138 20.7136 5.37742C21.0212 5.43346 21.2817 5.6369 21.4106 5.92174C21.9693 7.15641 22.1384 8.53203 21.8955 9.86528C21.6526 11.1985 21.0091 12.4261 20.0508 13.3844C19.0926 14.3426 17.865 14.9861 16.5318 15.229C15.4199 15.4316 14.2786 15.3476 13.2141 14.9901L7.07329 21.1309C6.51579 21.6883 5.75967 22.0015 4.97126 22.0015C4.18284 22.0015 3.42672 21.6883 2.86922 21.1309C2.31173 20.5734 1.99854 19.8172 1.99854 19.0288C1.99854 18.2404 2.31173 17.4843 2.86923 16.9268L9.01002 10.786C8.65248 9.72152 8.56847 8.58018 8.77105 7.46831C9.01397 6.13506 9.65745 4.9075 10.6157 3.94923C11.574 2.99096 12.8015 2.34749 14.1348 2.10457Z" fill="#4A4A4A"/>
</svg>
