<svg width="24" height="24" viewBox="0 0 24 24" fill="none" xmlns="http://www.w3.org/2000/svg">
<g clip-path="url(#clip0_2250_15706)">
<path fill-rule="evenodd" clip-rule="evenodd" d="M4.95331 13.5376C4.21637 14.3007 3.81276 15.3253 3.83128 16.386C3.84979 17.4467 4.28891 18.4566 5.05204 19.1936C5.81516 19.9305 6.83977 20.3341 7.90048 20.3156C8.42569 20.3064 8.94395 20.1939 9.42566 19.9844C9.90738 19.775 10.3431 19.4727 10.708 19.0948L12.792 16.9368C13.1757 16.5395 13.8087 16.5285 14.206 16.9121C14.6033 17.2958 14.6143 17.9289 14.2307 18.3261L12.1467 20.4842C11.5994 21.0509 10.9457 21.5044 10.2232 21.8186C9.50058 22.1328 8.72319 22.3015 7.93538 22.3153C6.34433 22.3431 4.8074 21.7377 3.66272 20.6322C2.51803 19.5268 1.85935 18.012 1.83158 16.4209C1.80381 14.8299 2.40922 13.2929 3.51463 12.1483L5.5986 9.99024C5.98225 9.59296 6.61532 9.58191 7.0126 9.96555C7.40988 10.3492 7.42093 10.9823 7.03728 11.3796L4.95331 13.5376ZM9.79124 7.0882C9.39396 6.70455 9.38291 6.07148 9.76655 5.6742L11.8505 3.51618C12.3979 2.94939 13.0515 2.49595 13.7741 2.18177C14.4967 1.86758 15.274 1.69879 16.0619 1.68504C16.8497 1.67129 17.6325 1.81285 18.3656 2.10162C19.0987 2.3904 19.7677 2.82075 20.3345 3.36809C20.9013 3.91543 21.3547 4.56905 21.6689 5.29163C21.9831 6.01421 22.1519 6.7916 22.1657 7.57941C22.1794 8.36722 22.0379 9.15003 21.7491 9.88314C21.4603 10.6162 21.03 11.2853 20.4826 11.8521L18.3986 14.0101C18.015 14.4074 17.3819 14.4184 16.9846 14.0348C16.5874 13.6511 16.5763 13.0181 16.96 12.6208L19.0439 10.4628C19.4088 10.0849 19.6957 9.63887 19.8882 9.15013C20.0808 8.6614 20.1751 8.13953 20.166 7.61432C20.1568 7.08911 20.0443 6.57085 19.8348 6.08913C19.6254 5.60741 19.3231 5.17166 18.9452 4.80677C18.5673 4.44187 18.1213 4.15498 17.6326 3.96246C17.1438 3.76994 16.622 3.67557 16.0968 3.68474C15.5716 3.6939 15.0533 3.80643 14.5716 4.01589C14.0899 4.22534 13.6541 4.52763 13.2892 4.90549L11.2052 7.06351C10.8216 7.4608 10.1885 7.47184 9.79124 7.0882Z" fill="#4A4A4A"/>
<path fill-rule="evenodd" clip-rule="evenodd" d="M7.9092 5.96512C7.37831 6.11735 6.82453 5.81038 6.6723 5.27949L6.12102 3.35697C5.96879 2.82608 6.27576 2.2723 6.80665 2.12007C7.33754 1.96784 7.89132 2.2748 8.04355 2.80569L8.59482 4.72822C8.74705 5.25911 8.44009 5.81289 7.9092 5.96512Z" fill="#4A4A4A"/>
<path fill-rule="evenodd" clip-rule="evenodd" d="M16.0887 18.0345C16.6196 17.8823 17.1734 18.1892 17.3256 18.7201L17.8769 20.6426C18.0291 21.1735 17.7222 21.7273 17.1913 21.8795C16.6604 22.0318 16.1066 21.7248 15.9544 21.1939L15.4031 19.2714C15.2509 18.7405 15.5578 18.1867 16.0887 18.0345Z" fill="#4A4A4A"/>
<path fill-rule="evenodd" clip-rule="evenodd" d="M5.82523 8.12315C5.69163 8.65903 5.1489 8.98513 4.61302 8.85152L2.67243 8.36768C2.13655 8.23407 1.81044 7.69134 1.94405 7.15546C2.07766 6.61958 2.62039 6.29348 3.15627 6.42709L5.09686 6.91093C5.63274 7.04454 5.95884 7.58727 5.82523 8.12315Z" fill="#4A4A4A"/>
<path fill-rule="evenodd" clip-rule="evenodd" d="M18.1727 15.8765C18.3063 15.3406 18.849 15.0145 19.3849 15.1481L21.3255 15.6319C21.8614 15.7655 22.1875 16.3083 22.0539 16.8441C21.9203 17.38 21.3775 17.7061 20.8417 17.5725L18.9011 17.0887C18.3652 16.9551 18.0391 16.4123 18.1727 15.8765Z" fill="#4A4A4A"/>
</g>
<defs>
<clipPath id="clip0_2250_15706">
<rect width="24" height="24" fill="white"/>
</clipPath>
</defs>
</svg>
