<svg width="24" height="24" viewBox="0 0 24 24" fill="none" xmlns="http://www.w3.org/2000/svg">
<g clip-path="url(#clip0_178_1258)">
<path fill-rule="evenodd" clip-rule="evenodd" d="M11.2929 11.2929C11.6834 10.9024 12.3166 10.9024 12.7071 11.2929L16.7071 15.2929C17.0976 15.6834 17.0976 16.3166 16.7071 16.7071C16.3166 17.0976 15.6834 17.0976 15.2929 16.7071L12 13.4142L8.70711 16.7071C8.31658 17.0976 7.68342 17.0976 7.29289 16.7071C6.90237 16.3166 6.90237 15.6834 7.29289 15.2929L11.2929 11.2929Z" fill="#4A4A4A"/>
<path fill-rule="evenodd" clip-rule="evenodd" d="M12 11C12.5523 11 13 11.4477 13 12V21C13 21.5523 12.5523 22 12 22C11.4477 22 11 21.5523 11 21V12C11 11.4477 11.4477 11 12 11Z" fill="#4A4A4A"/>
<path fill-rule="evenodd" clip-rule="evenodd" d="M8.66329 2.00854C10.0228 1.95846 11.3759 2.21721 12.621 2.76536C13.8661 3.31351 14.9707 4.13678 15.8518 5.17329C16.5633 6.01022 17.1141 6.96858 17.4791 7.99998H18C19.333 8.00086 20.6285 8.44564 21.6807 9.26412C22.7328 10.0826 23.4825 11.2282 23.8113 12.52C24.1401 13.8119 24.0293 15.1764 23.4965 16.3983C22.9636 17.6202 22.0391 18.6299 20.8687 19.268C20.3837 19.5323 19.7763 19.3535 19.512 18.8686C19.2476 18.3837 19.4264 17.7763 19.9113 17.512C20.6916 17.0866 21.308 16.4135 21.6632 15.5989C22.0185 14.7843 22.0923 13.8746 21.8731 13.0133C21.6539 12.1521 21.1541 11.3884 20.4527 10.8427C19.7512 10.2971 18.888 10.0006 17.9993 9.99998H16.74C16.2841 9.99998 15.8859 9.69166 15.7718 9.25029C15.507 8.22588 15.0133 7.27483 14.328 6.46866C13.6427 5.66249 12.7836 5.02216 11.8152 4.59582C10.8468 4.16949 9.79431 3.96823 8.73693 4.00719C7.67955 4.04615 6.64476 4.3243 5.71035 4.82075C4.77595 5.31719 3.96625 6.01901 3.34212 6.87343C2.71799 7.72784 2.29568 8.71264 2.10693 9.75376C1.91819 10.7949 1.96792 11.8653 2.25239 12.8844C2.53686 13.9035 3.04866 14.8449 3.74933 15.6378C4.11504 16.0516 4.07603 16.6836 3.66218 17.0493C3.24834 17.415 2.61638 17.376 2.25066 16.9622C1.3498 15.9428 0.691769 14.7324 0.326022 13.4221C-0.0397244 12.1118 -0.103664 10.7356 0.13901 9.397C0.381683 8.05841 0.924656 6.79224 1.72711 5.69371C2.52956 4.59517 3.5706 3.69284 4.77198 3.05455C5.97336 2.41626 7.3038 2.05863 8.66329 2.00854Z" fill="#4A4A4A"/>
<path fill-rule="evenodd" clip-rule="evenodd" d="M11.2929 11.2929C11.6834 10.9024 12.3166 10.9024 12.7071 11.2929L16.7071 15.2929C17.0976 15.6834 17.0976 16.3166 16.7071 16.7071C16.3166 17.0976 15.6834 17.0976 15.2929 16.7071L12 13.4142L8.70711 16.7071C8.31658 17.0976 7.68342 17.0976 7.29289 16.7071C6.90237 16.3166 6.90237 15.6834 7.29289 15.2929L11.2929 11.2929Z" fill="#4A4A4A"/>
</g>
<defs>
<clipPath id="clip0_178_1258">
<rect width="24" height="24" fill="white"/>
</clipPath>
</defs>
</svg>
