<svg width="24" height="24" viewBox="0 0 24 24" fill="none" xmlns="http://www.w3.org/2000/svg">
<path fill-rule="evenodd" clip-rule="evenodd" d="M11 3C6.58172 3 3 6.58172 3 11C3 15.4183 6.58172 19 11 19C15.4183 19 19 15.4183 19 11C19 6.58172 15.4183 3 11 3ZM1 11C1 5.47715 5.47715 1 11 1C16.5228 1 21 5.47715 21 11C21 16.5228 16.5228 21 11 21C5.47715 21 1 16.5228 1 11Z" fill="#4A4A4A"/>
<path fill-rule="evenodd" clip-rule="evenodd" d="M17.2929 17.2929C17.6834 16.9024 18.3166 16.9024 18.7071 17.2929L22.7071 21.2929C23.0976 21.6834 23.0976 22.3166 22.7071 22.7071C22.3166 23.0976 21.6834 23.0976 21.2929 22.7071L17.2929 18.7071C16.9024 18.3166 16.9024 17.6834 17.2929 17.2929Z" fill="#4A4A4A"/>
<path fill-rule="evenodd" clip-rule="evenodd" d="M5.93224 14.8763C6.55182 14.0502 7.46368 13.5 8.5 13.5H13.5C14.5363 13.5 15.4482 14.0502 16.0678 14.8763C16.3991 15.3181 16.3096 15.9449 15.8678 16.2763C15.4259 16.6077 14.7991 16.5181 14.4678 16.0763C14.1497 15.6522 13.7898 15.5 13.5 15.5H8.5C8.21025 15.5 7.85034 15.6522 7.53224 16.0763C7.20087 16.5181 6.57406 16.6077 6.13224 16.2763C5.69041 15.9449 5.60087 15.3181 5.93224 14.8763Z" fill="#4A4A4A"/>
<path fill-rule="evenodd" clip-rule="evenodd" d="M11 6.5C9.89543 6.5 9 7.39543 9 8.5C9 9.60457 9.89543 10.5 11 10.5C12.1046 10.5 13 9.60457 13 8.5C13 7.39543 12.1046 6.5 11 6.5ZM7 8.5C7 6.29086 8.79086 4.5 11 4.5C13.2091 4.5 15 6.29086 15 8.5C15 10.7091 13.2091 12.5 11 12.5C8.79086 12.5 7 10.7091 7 8.5Z" fill="#4A4A4A"/>
</svg>
