<svg width="27" height="26" viewBox="0 0 24 24" fill="none" xmlns="http://www.w3.org/2000/svg">
    <path fill-rule="evenodd" clip-rule="evenodd" d="M5.05095 12.3664C3.52169 11.3558 2.60639 10.7484 2.30506 10.5442C1.72414 10.1596 1.19547 9.66093 0.738881 9.06684C0.247709 8.44094 0.0021231 7.8592 0.0021231 7.32163C-0.00212866 7.01076 0.0460408 6.7023 0.143443 6.41666C0.240845 6.13102 0.385258 5.87473 0.567122 5.66474C0.934747 5.22214 1.46208 5.00085 2.14912 5.00085H21.8495C22.3904 4.98485 22.9202 5.19582 23.3558 5.60063C23.7799 6.00144 23.992 6.48345 23.992 7.04667C23.9927 7.72006 23.7739 8.36353 23.3354 8.97709C22.8687 9.61684 22.3159 10.1474 21.7026 10.5442C18.345 12.7695 16.256 14.1548 15.4356 14.7C15.3881 14.7335 15.3071 14.7891 15.1941 14.8666C15.1056 14.9273 14.9976 15.0014 14.8706 15.0889C14.5806 15.2912 14.3395 15.4536 14.1474 15.5761C13.9553 15.6987 13.7233 15.8369 13.4513 15.9907C13.203 16.134 12.9451 16.2494 12.6807 16.3355C12.4623 16.4086 12.2376 16.4473 12.0117 16.4509H11.9846C11.7583 16.4473 11.5333 16.4086 11.3145 16.3355C11.0505 16.2493 10.793 16.134 10.545 15.9907C10.2727 15.8369 10.0388 15.7001 9.84778 15.5761C9.65682 15.4522 9.415 15.2898 9.12459 15.0889C8.83682 14.8894 8.64848 14.7598 8.55959 14.7C7.74976 14.1548 6.58021 13.3769 5.05095 12.3664ZM15.994 16.3284C17.5112 15.2761 19.7335 13.8039 22.661 11.912C23.1391 11.6058 23.5883 11.2326 24 10.7993V20.9586C24 21.5228 23.791 22.0029 23.3706 22.4046C22.933 22.81 22.4003 23.0191 21.8575 22.9987H2.14925C1.60351 23.0188 1.06824 22.807 0.629408 22.3975C0.210179 21.9957 0 21.5213 0 20.9515V10.7993C0.416103 11.2355 0.871184 11.6089 1.356 11.912C4.58779 14.011 6.80635 15.4831 8.01168 16.3284C8.52394 16.6865 8.93827 16.9653 9.25467 17.1647C9.66321 17.4106 10.0864 17.6159 10.5203 17.7787C10.9945 17.9767 11.4898 18.0824 11.9893 18.0922H12.0164C12.5158 18.0825 13.0112 17.9768 13.4854 17.7787C13.9194 17.6162 14.3425 17.4109 14.751 17.1647C15.0711 16.9653 15.4855 16.6865 15.994 16.3284Z" fill="#4A4A4A"/>
</svg>
