<svg width="28" height="28" viewBox="0 0 28 28" fill="none" xmlns="http://www.w3.org/2000/svg">
<rect width="28" height="28" rx="14" fill="#F2F2F2"/>
<path fill-rule="evenodd" clip-rule="evenodd" d="M5.5 7.5C5.5 6.39543 6.39543 5.5 7.5 5.5H20.5C21.6046 5.5 22.5 6.39543 22.5 7.5V20.5C22.5 21.6046 21.6046 22.5 20.5 22.5H7.5C6.39543 22.5 5.5 21.6046 5.5 20.5V7.5ZM19.3138 11.0813C19.6348 10.6319 19.5307 10.0074 19.0813 9.68634C18.6319 9.36534 18.0073 9.46943 17.6863 9.91884L13.4569 15.84L11.2825 13.1081C10.9385 12.676 10.3094 12.6045 9.87729 12.9484C9.44517 13.2924 9.37368 13.9215 9.71761 14.3536L12.7176 18.1228C12.913 18.3683 13.2123 18.5079 13.526 18.4997C13.8397 18.4916 14.1314 18.3367 14.3138 18.0813L19.3138 11.0813Z" fill="#4A4A4A"/>
</svg>
