<svg width="24" height="24" viewBox="0 0 24 24" fill="none" xmlns="http://www.w3.org/2000/svg">
<path fill-rule="evenodd" clip-rule="evenodd" d="M18.5 5.5H5.5L5.5 18.5H18.5V5.5ZM5.5 3.5C4.39543 3.5 3.5 4.39543 3.5 5.5V18.5C3.5 19.6046 4.39543 20.5 5.5 20.5H18.5C19.6046 20.5 20.5 19.6046 20.5 18.5V5.5C20.5 4.39543 19.6046 3.5 18.5 3.5H5.5Z" fill="#4A4A4A"/>
<path fill-rule="evenodd" clip-rule="evenodd" d="M7.40002 12C7.40002 11.3925 7.89251 10.9 8.50002 10.9H15.5C16.1075 10.9 16.6 11.3925 16.6 12C16.6 12.6075 16.1075 13.1 15.5 13.1H8.50002C7.89251 13.1 7.40002 12.6075 7.40002 12Z" fill="#4A4A4A"/>
</svg>
