<svg width="28" height="28" viewBox="0 0 28 28" fill="none" xmlns="http://www.w3.org/2000/svg">
<rect width="28" height="28" rx="14" fill="#F2F2F2"/>
<path fill-rule="evenodd" clip-rule="evenodd" d="M20.5 7.5H7.5L7.5 20.5H20.5V7.5ZM7.5 5.5C6.39543 5.5 5.5 6.39543 5.5 7.5V20.5C5.5 21.6046 6.39543 22.5 7.5 22.5H20.5C21.6046 22.5 22.5 21.6046 22.5 20.5V7.5C22.5 6.39543 21.6046 5.5 20.5 5.5H7.5Z" fill="#4A4A4A"/>
<path fill-rule="evenodd" clip-rule="evenodd" d="M9.40002 14C9.40002 13.3925 9.89251 12.9 10.5 12.9H17.5C18.1075 12.9 18.6 13.3925 18.6 14C18.6 14.6075 18.1075 15.1 17.5 15.1H10.5C9.89251 15.1 9.40002 14.6075 9.40002 14Z" fill="#4A4A4A"/>
</svg>
