<svg width="24" height="24" viewBox="0 0 24 24" fill="none" xmlns="http://www.w3.org/2000/svg">
<path fill-rule="evenodd" clip-rule="evenodd" d="M3.5 5.5C3.5 4.39543 4.39543 3.5 5.5 3.5H18.5C19.6046 3.5 20.5 4.39543 20.5 5.5V18.5C20.5 19.6046 19.6046 20.5 18.5 20.5H5.5C4.39543 20.5 3.5 19.6046 3.5 18.5V5.5ZM17.3138 9.08132C17.6348 8.6319 17.5307 8.00735 17.0813 7.68634C16.6319 7.36534 16.0073 7.46943 15.6863 7.91884L11.4569 13.84L9.28246 11.1081C8.93853 10.676 8.30941 10.6045 7.87729 10.9484C7.44517 11.2924 7.37368 11.9215 7.71761 12.3536L10.7176 16.1228C10.913 16.3683 11.2123 16.5079 11.526 16.4997C11.8397 16.4916 12.1314 16.3367 12.3138 16.0813L17.3138 9.08132Z" fill="#4A4A4A"/>
</svg>
