<svg width="24" height="24" viewBox="0 0 24 24" fill="none" xmlns="http://www.w3.org/2000/svg">
<path fill-rule="evenodd" clip-rule="evenodd" d="M4.22208 4.22208C4.65166 3.79251 5.34814 3.79251 5.77772 4.22208L19.7777 18.2221C20.2073 18.6517 20.2073 19.3481 19.7777 19.7777C19.3481 20.2073 18.6517 20.2073 18.2221 19.7777L4.22208 5.77772C3.79251 5.34814 3.79251 4.65166 4.22208 4.22208Z" fill="#4A4A4A"/>
<path fill-rule="evenodd" clip-rule="evenodd" d="M19.7779 4.22208C20.2075 4.65166 20.2075 5.34814 19.7779 5.77772L5.77791 19.7777C5.34834 20.2073 4.65186 20.2073 4.22228 19.7777C3.7927 19.3481 3.7927 18.6517 4.22228 18.2221L18.2223 4.22208C18.6519 3.79251 19.3483 3.79251 19.7779 4.22208Z" fill="#4A4A4A"/>
</svg>
