<svg width="24" height="24" viewBox="0 0 24 24" fill="none" xmlns="http://www.w3.org/2000/svg">
<path d="M12.303 7.37356L11.303 7.37357C11.303 7.92585 11.7507 8.37356 12.303 8.37356V7.37356ZM3 6.05672C3 6.02539 3.02539 6 3.05672 6V4C1.92083 4 1 4.92083 1 6.05672H3ZM3 7.37356V6.05672H1V7.37356H3ZM3 7.37358V7.37356H1V7.37358H3ZM3 19.0877V7.37358H1V19.0877H3ZM3 19.0877H3H1C1 20.1923 1.89543 21.0877 3 21.0877V19.0877ZM21 19.0877H3V21.0877H21V19.0877ZM21 19.0877V19.0877V21.0877C22.1046 21.0877 23 20.1923 23 19.0877H21ZM21 8.37356V19.0877H23V8.37356H21ZM21 8.37356H23C23 7.26899 22.1046 6.37356 21 6.37356V8.37356ZM12.303 8.37356H21V6.37356H12.303V8.37356ZM9.92945 6C10.6881 6 11.303 6.61497 11.303 7.37357L13.303 7.37355C13.303 5.51039 11.7926 4 9.92945 4V6ZM3.05672 6H9.92945V4H3.05672V6Z" fill="#4A4A4A"/>
</svg>
