<svg width="24" height="24" viewBox="0 0 24 24" fill="none" xmlns="http://www.w3.org/2000/svg">
<path fill-rule="evenodd" clip-rule="evenodd" d="M16.6719 5.55832C15.2245 4.50973 13.4667 3.9786 11.6815 4.05047C9.89631 4.12234 8.18769 4.79303 6.83084 5.95452C5.474 7.116 4.54792 8.70066 4.20177 10.4533C3.85562 12.2058 4.10955 14.0243 4.92266 15.6158C5.73577 17.2073 7.06072 18.4792 8.68411 19.2265C10.3075 19.9739 12.1348 20.1532 13.8717 19.7356C15.6086 19.3181 17.154 18.3279 18.259 16.9246C19.364 15.5214 19.9642 13.7867 19.963 12C19.9626 11.4356 20.4198 10.978 20.9843 10.978C21.5487 10.978 22.0066 11.4356 22.007 12C22.0085 14.2457 21.2541 16.4261 19.8653 18.1898C18.4764 19.9536 16.534 21.1982 14.3508 21.723C12.1677 22.2479 9.87087 22.0225 7.8304 21.0832C5.78994 20.1438 4.12458 18.5452 3.10257 16.5448C2.08056 14.5444 1.76139 12.2587 2.19647 10.0559C2.63155 7.853 3.79556 5.86122 5.501 4.40133C7.20644 2.94144 9.35404 2.09843 11.5979 2.0081C13.8417 1.91776 16.0512 2.58535 17.8703 3.90334C18.3276 4.23461 18.43 4.87363 18.099 5.33064C17.768 5.78765 17.1291 5.88959 16.6719 5.55832Z" fill="white"/>
</svg>
