<svg width="24" height="24" viewBox="0 0 24 24" fill="none" xmlns="http://www.w3.org/2000/svg">
<path d="M18.3871 3.36151C21.1815 5.32579 23 8.53848 23 12.1746C23 18.146 18.0855 22.9869 12.0222 23C5.96775 23.0131 1.00888 18.1547 1.00001 12.192C0.995573 8.55594 2.81412 5.33452 5.60404 3.36587C6.12299 3.00357 6.84597 3.15635 7.15646 3.70198L7.85726 4.92857C8.11896 5.3869 7.99476 5.96745 7.56452 6.28174C5.7238 7.62618 4.54839 9.75634 4.54839 12.1702C4.54396 16.1992 7.85283 19.5079 12 19.5079C16.0629 19.5079 19.4782 16.269 19.4516 12.1266C19.4383 9.86547 18.3561 7.68293 16.4311 6.27737C16.0008 5.96309 15.8811 5.38253 16.1427 4.92857L16.8436 3.70198C17.154 3.16071 17.8726 2.9992 18.3871 3.36151ZM13.7742 12.5238V2.04762C13.7742 1.46706 13.2996 1 12.7097 1H11.2903C10.7004 1 10.2258 1.46706 10.2258 2.04762V12.5238C10.2258 13.1044 10.7004 13.5714 11.2903 13.5714H12.7097C13.2996 13.5714 13.7742 13.1044 13.7742 12.5238Z" fill="#FD8C3C"/>
</svg>
