<svg width="24" height="24" viewBox="0 0 24 24" fill="none" xmlns="http://www.w3.org/2000/svg">
<path fill-rule="evenodd" clip-rule="evenodd" d="M3.70711 2.29289C3.31658 1.90237 2.68342 1.90237 2.29289 2.29289C1.90237 2.68342 1.90237 3.31658 2.29289 3.70711L7.37654 8.79075L6.64883 9.06369C6.51519 9.11381 6.39382 9.19197 6.29289 9.29289L4.79289 10.7929C4.40237 11.1834 4.40237 11.8166 4.79289 12.2071L7.58579 15L3.79289 18.7929C3.40237 19.1834 3.40237 19.8166 3.79289 20.2071C4.18342 20.5976 4.81658 20.5976 5.20711 20.2071L9 16.4142L11.7929 19.2071C12.1834 19.5976 12.8166 19.5976 13.2071 19.2071L14.7071 17.7071C14.808 17.6062 14.8862 17.4848 14.9363 17.3512L15.2093 16.6235L20.2929 21.7071C20.6834 22.0976 21.3166 22.0976 21.7071 21.7071C22.0976 21.3166 22.0976 20.6834 21.7071 20.2929L15.5893 14.1751C15.5696 14.1514 15.5487 14.1285 15.5267 14.1065L10.6942 9.28003L3.70711 2.29289ZM12.5 17.0858L9.70711 14.2929L6.91421 11.5L7.55396 10.8603L8.92965 10.3443L9.27959 10.6938L13.6559 15.0701L13.1398 16.446L12.5 17.0858ZM15.7071 3.79289L20.207 8.29278L20.7071 8.79289C21.0976 9.18342 21.0976 9.81658 20.7071 10.2071C20.3887 10.5255 19.9089 10.5843 19.5309 10.3835L16.9572 12.958C16.5668 13.3486 15.9336 13.3487 15.543 12.9582C15.1524 12.5678 15.1523 11.9346 15.5428 11.544L18.0859 9.00011L15 5.91421L12.4581 8.45611C12.0676 8.84663 11.4344 8.84663 11.0439 8.45611C10.6534 8.06558 10.6534 7.43242 11.0439 7.04189L13.6166 4.46919C13.4157 4.09118 13.4744 3.61136 13.7929 3.29289C14.1834 2.90237 14.8166 2.90237 15.2071 3.29289L15.7071 3.79289Z" fill="#4A4A4A"/>
</svg>
