<svg width="24" height="24" viewBox="0 0 24 24" fill="none" xmlns="http://www.w3.org/2000/svg">
<path fill-rule="evenodd" clip-rule="evenodd" d="M15.2071 3.29289C14.8166 2.90237 14.1834 2.90237 13.7929 3.29289C13.4744 3.61136 13.4157 4.09117 13.6166 4.46919L10.4461 7.63973L6.64888 9.06367C6.51521 9.11379 6.39383 9.19195 6.29289 9.29289L4.79289 10.7929C4.40237 11.1834 4.40237 11.8166 4.79289 12.2071L7.58579 15L3.79289 18.7929C3.40237 19.1834 3.40237 19.8166 3.79289 20.2071C4.18342 20.5976 4.81658 20.5976 5.20711 20.2071L9 16.4142L11.7929 19.2071C12.1834 19.5976 12.8166 19.5976 13.2071 19.2071L14.7071 17.7071C14.808 17.6062 14.8862 17.4848 14.9363 17.3511L16.3603 13.5539L19.5308 10.3834C19.9088 10.5843 20.3886 10.5256 20.7071 10.2071C21.0976 9.81658 21.0976 9.18342 20.7071 8.79289L20.2071 8.29289L15.7071 3.79289L15.2071 3.29289ZM15 5.91421L11.7071 9.20711C11.6062 9.30805 11.4848 9.38621 11.3511 9.43633L7.55394 10.8603L6.91421 11.5L9.70711 14.2929L12.5 17.0858L13.1397 16.4461L14.5637 12.6489C14.6138 12.5152 14.692 12.3938 14.7929 12.2929L18.0858 9L15 5.91421Z" fill="#4A4A4A"/>
</svg>
