<svg width="24" height="24" viewBox="0 0 24 24" fill="none" xmlns="http://www.w3.org/2000/svg">
<path fill-rule="evenodd" clip-rule="evenodd" d="M13.5087 6.02677C16.8625 5.53409 19.9806 7.85343 20.4733 11.2072C20.966 14.5609 18.6466 17.6791 15.2929 18.1717C14.5851 18.2757 13.8899 18.2546 13.2283 18.1259C12.6862 18.0204 12.1612 18.3744 12.0558 18.9165C11.9503 19.4586 12.3043 19.9836 12.8464 20.0891C13.7266 20.2603 14.6492 20.2878 15.5836 20.1505C20.0302 19.4973 23.1053 15.3631 22.4521 10.9165C21.7988 6.4699 17.6646 3.39478 13.218 4.04801C11.8875 4.24347 10.6772 4.75176 9.65346 5.48803C9.20508 5.81049 9.10301 6.43538 9.42547 6.88375C9.74793 7.33212 10.3728 7.4342 10.8212 7.11174C11.5913 6.55785 12.5021 6.17465 13.5087 6.02677Z" fill="#4A4A4A"/>
<path fill-rule="evenodd" clip-rule="evenodd" d="M14.3802 8.25244C13.8279 8.25244 13.3802 8.70016 13.3802 9.25244V13.0514C13.3802 13.3902 13.5517 13.7059 13.8359 13.8903L15.888 15.2216C16.3513 15.5221 16.9706 15.3902 17.2712 14.9269C17.5718 14.4636 17.4398 13.8443 16.9765 13.5437L15.3802 12.5081V9.25244C15.3802 8.70016 14.9325 8.25244 14.3802 8.25244Z" fill="#4A4A4A"/>
<path fill-rule="evenodd" clip-rule="evenodd" d="M1.79289 16.2929C2.18342 15.9024 2.81658 15.9024 3.20711 16.2929L5.5 18.5858L7.79289 16.2929C8.18342 15.9024 8.81658 15.9024 9.20711 16.2929C9.59763 16.6834 9.59763 17.3166 9.20711 17.7071L6.20711 20.7071C5.81658 21.0976 5.18342 21.0976 4.79289 20.7071L1.79289 17.7071C1.40237 17.3166 1.40237 16.6834 1.79289 16.2929Z" fill="#4A4A4A"/>
<path fill-rule="evenodd" clip-rule="evenodd" d="M5.5 4C4.94772 4 4.5 4.44772 4.5 5V20C4.5 20.5523 4.94772 21 5.5 21C6.05228 21 6.5 20.5523 6.5 20V5C6.5 4.44772 6.05228 4 5.5 4Z" fill="#4A4A4A"/>
</svg>
