<svg width="24" height="24" viewBox="0 0 24 24" fill="none" xmlns="http://www.w3.org/2000/svg">
<path fill-rule="evenodd" clip-rule="evenodd" d="M16.1333 6.17283C16.1068 6.19554 16 6.29091 16 6.71429V7.42857H18V6.71429C18 6.29091 17.8932 6.19554 17.8667 6.17283C17.8055 6.12037 17.5943 6 17 6C16.4057 6 16.1945 6.12037 16.1333 6.17283ZM20 6.71429C20 5.95481 19.7968 5.19304 19.1683 4.65431C18.5745 4.14535 17.7857 4 17 4C16.2143 4 15.4255 4.14535 14.8317 4.65431C14.2032 5.19304 14 5.95481 14 6.71429V11C14 11.5523 14.4477 12 15 12C15.5523 12 16 11.5523 16 11V9.42857H18V11C18 11.5523 18.4477 12 19 12C19.5523 12 20 11.5523 20 11V6.71429Z" fill="#4A4A4A"/>
<path fill-rule="evenodd" clip-rule="evenodd" d="M14 14C14 13.4477 14.4477 13 15 13H19C19.3688 13 19.7077 13.203 19.8817 13.5281C20.0557 13.8533 20.0366 14.2478 19.8321 14.5547L16.8685 19H19C19.5523 19 20 19.4477 20 20C20 20.5523 19.5523 21 19 21H15C14.6312 21 14.2923 20.797 14.1183 20.4719C13.9443 20.1467 13.9634 19.7522 14.168 19.4453L17.1315 15H15C14.4477 15 14 14.5523 14 14Z" fill="#4A4A4A"/>
<path fill-rule="evenodd" clip-rule="evenodd" d="M3.29289 16.2929C3.68342 15.9024 4.31658 15.9024 4.70711 16.2929L7 18.5858L9.29289 16.2929C9.68342 15.9024 10.3166 15.9024 10.7071 16.2929C11.0976 16.6834 11.0976 17.3166 10.7071 17.7071L7.70711 20.7071C7.31658 21.0976 6.68342 21.0976 6.29289 20.7071L3.29289 17.7071C2.90237 17.3166 2.90237 16.6834 3.29289 16.2929Z" fill="#4A4A4A"/>
<path fill-rule="evenodd" clip-rule="evenodd" d="M7 4C7.55228 4 8 4.44772 8 5V20C8 20.5523 7.55228 21 7 21C6.44772 21 6 20.5523 6 20V5C6 4.44772 6.44772 4 7 4Z" fill="#4A4A4A"/>
</svg>
