<svg width="24" height="24" viewBox="0 0 24 24" fill="none" xmlns="http://www.w3.org/2000/svg">
<path fill-rule="evenodd" clip-rule="evenodd" d="M18 6C18 6.55228 17.5523 7 17 7L13 7C12.4477 7 12 6.55228 12 6C12 5.44772 12.4477 5 13 5L17 5C17.5523 5 18 5.44772 18 6Z" fill="#4A4A4A"/>
<path fill-rule="evenodd" clip-rule="evenodd" d="M20 12C20 12.5523 19.5523 13 19 13L13 13C12.4477 13 12 12.5523 12 12C12 11.4477 12.4477 11 13 11L19 11C19.5523 11 20 11.4477 20 12Z" fill="#4A4A4A"/>
<path fill-rule="evenodd" clip-rule="evenodd" d="M22 18C22 17.4477 21.5523 17 21 17H13C12.4477 17 12 17.4477 12 18C12 18.5523 12.4477 19 13 19H21C21.5523 19 22 18.5523 22 18Z" fill="#4A4A4A"/>
<path fill-rule="evenodd" clip-rule="evenodd" d="M9.70711 16.2929C9.31658 15.9024 8.68342 15.9024 8.29289 16.2929L6 18.5858L3.70711 16.2929C3.31658 15.9024 2.68342 15.9024 2.29289 16.2929C1.90237 16.6834 1.90237 17.3166 2.29289 17.7071L5.29289 20.7071C5.68342 21.0976 6.31658 21.0976 6.70711 20.7071L9.70711 17.7071C10.0976 17.3166 10.0976 16.6834 9.70711 16.2929Z" fill="#4A4A4A"/>
<path fill-rule="evenodd" clip-rule="evenodd" d="M6 4C6.55228 4 7 4.44772 7 5V20C7 20.5523 6.55228 21 6 21C5.44772 21 5 20.5523 5 20V5C5 4.44772 5.44772 4 6 4Z" fill="#4A4A4A"/>
</svg>
