<svg width="24" height="24" viewBox="0 0 24 24" fill="none" xmlns="http://www.w3.org/2000/svg">
<path fill-rule="evenodd" clip-rule="evenodd" d="M12 3C7.02944 3 3 7.02944 3 12C3 16.9706 7.02944 21 12 21C16.9706 21 21 16.9706 21 12C21 7.02944 16.9706 3 12 3ZM1 12C1 5.92487 5.92487 1 12 1C18.0751 1 23 5.92487 23 12C23 18.0751 18.0751 23 12 23C5.92487 23 1 18.0751 1 12Z" fill="#4A4A4A"/>
<path fill-rule="evenodd" clip-rule="evenodd" d="M16.5892 8.19206C17.0355 8.51745 17.1334 9.14299 16.808 9.58924L12.433 15.5892C12.2502 15.84 11.9614 15.9916 11.6512 15.9997C11.341 16.0078 11.0446 15.8715 10.8489 15.6307L8.22392 12.3999C7.87565 11.9713 7.9408 11.3415 8.36944 10.9932C8.79808 10.6449 9.42788 10.7101 9.77615 11.1387L11.5822 13.3615L15.192 8.4109C15.5174 7.96465 16.143 7.86667 16.5892 8.19206Z" fill="#4A4A4A"/>
</svg>
