<svg width="24" height="24" viewBox="0 0 24 24" fill="none" xmlns="http://www.w3.org/2000/svg">
<path fill-rule="evenodd" clip-rule="evenodd" d="M15.8647 3.93149C15.4047 3.87951 14.937 3.89457 14.4764 3.9785C13.524 4.15201 12.6472 4.61164 11.9627 5.29612C11.2782 5.9806 10.8186 6.85742 10.6451 7.80974C10.4716 8.76207 10.5924 9.74465 10.9915 10.6266C11.1549 10.9877 11.0776 11.4123 10.7973 11.6926L4.21623 18.2737C4.01596 18.474 3.90344 18.7456 3.90344 19.0288C3.90344 19.3121 4.01596 19.5837 4.21623 19.784C4.41651 19.9842 4.68814 20.0968 4.97138 20.0968C5.25461 20.0968 5.52625 19.9842 5.72652 19.784L12.3076 13.2029C12.5879 12.9226 13.0125 12.8453 13.3736 13.0087C14.2555 13.4078 15.2381 13.5286 16.1905 13.3551C17.1428 13.1816 18.0196 12.722 18.7041 12.0375C19.3886 11.353 19.8482 10.4762 20.0217 9.52385C20.1056 9.06322 20.1207 8.59552 20.0687 8.13555L17.6192 10.5851C17.2631 10.9341 16.7844 11.1295 16.2858 11.1295C15.7872 11.1295 15.3085 10.9341 14.9524 10.5851L14.9456 10.5784L13.4151 9.04779C13.0661 8.69173 12.8707 8.21299 12.8707 7.7144C12.8707 7.21582 13.0661 6.73711 13.4152 6.38106L13.4218 6.37425L15.8647 3.93149ZM14.1349 2.10457C15.4682 1.86164 16.8438 2.03081 18.0785 2.58952C18.3633 2.71842 18.5667 2.97891 18.6228 3.28649C18.6788 3.59408 18.5803 3.90958 18.3593 4.13065L14.7755 7.7144L16.2858 9.2247L19.8695 5.64095C20.0906 5.41987 20.4061 5.32138 20.7137 5.37742C21.0213 5.43346 21.2818 5.6369 21.4107 5.92174C21.9694 7.15641 22.1386 8.53203 21.8956 9.86528C21.6527 11.1985 21.0092 12.4261 20.051 13.3844C19.0927 14.3426 17.8651 14.9861 16.5319 15.229C15.42 15.4316 14.2787 15.3476 13.2142 14.9901L7.07341 21.1309C6.51592 21.6883 5.75979 22.0015 4.97138 22.0015C4.18296 22.0015 3.42684 21.6883 2.86935 21.1309C2.31185 20.5734 1.99866 19.8172 1.99866 19.0288C1.99866 18.2404 2.31185 17.4843 2.86935 16.9268L9.01014 10.786C8.6526 9.72152 8.56859 8.58018 8.77117 7.46831C9.0141 6.13506 9.65757 4.9075 10.6158 3.94923C11.5741 2.99096 12.8017 2.34749 14.1349 2.10457Z" fill="#4A4A4A"/>
</svg>
