<svg width="24" height="24" viewBox="0 0 24 24" fill="none" xmlns="http://www.w3.org/2000/svg">
<g clip-path="url(#clip0_108_19)">
<path fill-rule="evenodd" clip-rule="evenodd" d="M19.055 12.803C19.2357 12.2811 19.8053 12.0045 20.3272 12.1852C21.4548 12.5755 22.3884 13.4318 23.0271 14.5365C23.6662 15.6419 23.9993 16.9716 24 18.3182V21.0002C24 21.5524 23.5523 22.0002 23 22.0002C22.4477 22.0002 22 21.5524 22 21.0002L22 18.3193C21.9994 17.2896 21.7425 16.3104 21.2957 15.5376C20.8484 14.7641 20.2615 14.2789 19.6729 14.0751C19.151 13.8945 18.8744 13.3249 19.055 12.803Z" fill="#4A4A4A"/>
<path fill-rule="evenodd" clip-rule="evenodd" d="M15.1868 1.38413C15.2071 0.832215 15.6709 0.401232 16.2228 0.421501C17.3609 0.463298 18.4528 0.882689 19.3262 1.61355C20.1996 2.34442 20.8049 3.34519 21.0467 4.45809C21.2885 5.57099 21.153 6.73271 20.6616 7.76011C20.1703 8.78751 19.3509 9.62214 18.3328 10.1324C17.839 10.3799 17.2382 10.1802 16.9907 9.6865C16.7432 9.19276 16.9429 8.59189 17.4366 8.34443C18.0578 8.03312 18.5576 7.52394 18.8574 6.89717C19.1572 6.27039 19.2398 5.56166 19.0923 4.88273C18.9448 4.20379 18.5755 3.59326 18.0427 3.14738C17.5098 2.70151 16.8438 2.44565 16.1494 2.42015C15.5975 2.39988 15.1665 1.93604 15.1868 1.38413Z" fill="#4A4A4A"/>
<path fill-rule="evenodd" clip-rule="evenodd" d="M1.50545 15.6935C2.48124 14.6221 3.82583 14 5.25 14H13.75C15.1742 14 16.5188 14.6221 17.4945 15.6935C18.4675 16.7618 19 18.1924 19 19.6667V22C19 22.5523 18.5523 23 18 23C17.4477 23 17 22.5523 17 22V19.6667C17 18.6656 16.637 17.7222 16.0159 17.0402C15.3976 16.3613 14.5802 16 13.75 16H5.25C4.41983 16 3.60241 16.3613 2.98414 17.0402C2.36303 17.7222 2 18.6656 2 19.6667V22C2 22.5523 1.55228 23 1 23C0.447715 23 0 22.5523 0 22V19.6667C0 18.1924 0.532504 16.7618 1.50545 15.6935Z" fill="#4A4A4A"/>
<path fill-rule="evenodd" clip-rule="evenodd" d="M9.5 3C7.567 3 6 4.567 6 6.5C6 8.433 7.567 10 9.5 10C11.433 10 13 8.433 13 6.5C13 4.567 11.433 3 9.5 3ZM4 6.5C4 3.46243 6.46243 1 9.5 1C12.5376 1 15 3.46243 15 6.5C15 9.53757 12.5376 12 9.5 12C6.46243 12 4 9.53757 4 6.5Z" fill="#4A4A4A"/>
</g>
<defs>
<clipPath id="clip0_108_19">
<rect width="24" height="24" fill="white"/>
</clipPath>
</defs>
</svg>
